<?xml version="1.0" standalone="no"?>
<!DOCTYPE svg PUBLIC "-//W3C//DTD SVG 1.1//EN" "http://www.w3.org/Graphics/SVG/1.1/DTD/svg11.dtd" >
<svg xmlns="http://www.w3.org/2000/svg">
<metadata>Generated by IcoMoon</metadata>
<defs>
<font id="icomoon" horiz-adv-x="1024">
<font-face units-per-em="1024" ascent="960" descent="-64" />
<missing-glyph horiz-adv-x="1024" />
<glyph unicode="&#x20;" horiz-adv-x="512" d="" />
<glyph unicode="&#xe900;" glyph-name="EP-Icons_at" d="M512 917.333c-259.113-0.122-469.118-210.203-469.118-469.333 0-259.206 210.128-469.333 469.333-469.333 123.289 0 235.475 47.538 319.228 125.285l-0.296-0.272c4.44 5.126 7.145 11.86 7.145 19.226 0 16.259-13.181 29.44-29.44 29.44-6.726 0-12.925-2.255-17.882-6.051l0.071 0.052c-72.853-67.438-170.689-108.806-278.186-108.806-226.451 0-410.027 183.575-410.027 410.027s183.575 410.027 410.027 410.027c226.3 0 409.78-183.329 410.026-409.571v-87.917c-3.305-46.065-41.488-82.185-88.107-82.185s-84.802 36.12-88.090 81.901l-0.016 0.285v293.12c0 16.259-13.181 29.44-29.44 29.44v0c-0.001 0-0.002 0-0.003 0-16.024 0-29.013-12.99-29.013-29.013 0-0.15 0.001-0.3 0.003-0.449v0.023-50.347c-43.222 49.010-106.157 79.763-176.276 79.763-129.603 0-234.667-105.064-234.667-234.667s105.064-234.667 234.667-234.667c59.303 0 113.468 21.998 154.78 58.278l-0.264-0.228c11.585 10.543 22.071 21.84 31.55 33.962l0.45 0.598c22.342-54.308 74.841-91.847 136.109-91.847 80.801 0 146.352 65.292 146.771 145.994v87.933c0 259.206-210.128 469.333-469.333 469.333v0zM512 272.213c-96.901 0.243-175.36 78.852-175.36 175.786 0 97.084 78.702 175.787 175.787 175.787s175.786-78.702 175.787-175.786v0c0-0.127 0.001-0.278 0.001-0.429 0-96.849-78.511-175.36-175.36-175.36-0.3 0-0.6 0.001-0.9 0.002h0.046z" />
<glyph unicode="&#xe901;" glyph-name="EP-Icons_Accounts" d="M170.112 68.267h259.413c6.827 0 12.8 5.547 12.8 12.8s-5.547 12.8-12.8 12.8c0 0 0 0 0 0h-246.613v686.080h130.133v-41.813c0-6.827 5.547-12.8 12.8-12.8h207.36c6.827 0 12.8 5.547 12.8 12.8v41.813h130.133v-237.227c0-6.827 5.547-12.8 12.8-12.8 6.827 0 12.8 5.547 12.8 12.8v250.027c0 6.827-5.547 12.8-12.8 12.8h-142.933v43.947c0 6.827-5.547 12.8-12.8 12.8h-37.12c-6.827 37.12-42.667 61.44-79.787 54.187-27.733-5.12-49.067-26.88-54.187-54.187h-36.267c-6.827 0-12.8-5.547-12.8-12.8v-43.947h-142.933c-6.827 0-12.8-5.547-12.8-12.8v-711.68c0-7.253 5.547-12.8 12.8-12.8v0zM428.672 892.16c18.773 0 35.413-12.373 40.96-30.293h-81.493c5.547 17.92 22.187 29.867 40.533 30.293v0zM338.219 836.267h182.187v-85.76h-181.76l-0.427 85.76zM290.859 639.573h253.013c6.827 0 12.8 5.547 12.8 12.8 0 6.827-5.547 12.8-12.8 12.8h-253.013c-6.827 0-12.8-5.547-12.8-12.8 0-6.827 5.547-12.8 12.8-12.8zM290.859 567.893h253.013c6.827 0 12.8 5.547 12.8 12.8 0 6.827-5.547 12.8-12.8 12.8h-253.013c-6.827 0-12.8-5.547-12.8-12.8s5.547-12.8 12.8-12.8zM474.325 499.627v-508.16c0-6.827 5.547-12.8 12.8-12.8h366.933c6.827 0 12.8 5.547 12.8 12.8v508.16c0 6.827-5.547 12.8-12.8 12.8h-366.933c-6.827 0-12.8-5.973-12.8-12.8zM499.925 486.827h341.333v-482.987h-341.333v482.987zM808.832 463.36h-276.48c-6.827 0-12.8-5.547-12.8-12.8v-63.573c0-6.827 5.547-12.8 12.8-12.8h276.48c6.827 0 12.8 5.547 12.8 12.8v63.573c0 6.827-5.973 12.8-12.8 12.8zM796.032 399.36h-250.88v37.973h250.88v-37.973zM808.832 342.187h-276.48c-6.827 0-12.8-5.547-12.8-12.8v-261.973c0-6.827 5.547-12.8 12.8-12.8v0h276.48c6.827 0 12.8 5.547 12.8 12.8v0 261.973c0 7.253-5.973 12.8-12.8 12.8zM545.152 231.68h39.68v-66.133h-39.68v66.133zM610.005 231.68h47.787v-66.133h-47.36l-0.427 66.133zM657.792 257.28h-47.36v59.733h47.787l-0.427-59.733zM683.392 317.013h47.787v-59.733h-47.787v59.733zM657.792 140.373v-59.733h-47.36v59.733h47.36zM683.392 140.373h47.787v-59.733h-47.787v59.733zM683.392 165.547v66.133h47.787v-66.133h-47.787zM756.352 231.68h39.68v-66.133h-39.68v66.133zM796.032 257.28h-39.68v59.733h39.68v-59.733zM584.832 317.013v-59.733h-39.68v59.733h39.68zM545.152 140.373h39.68v-59.733h-39.68v59.733zM756.352 80.213v59.733h39.68v-59.733h-39.68z" />
<glyph unicode="&#xe902;" glyph-name="EP-Icons_Add" d="M981.333 490.24h-427.093v427.093h-84.48v-427.093h-427.093v-84.48h427.093v-427.093h84.48v427.093h427.093z" />
<glyph unicode="&#xe903;" glyph-name="EP-Icons_Admin" d="M877.653 770.987c-132.267-0.427-259.413 50.347-354.987 141.653-5.547 5.973-14.933 5.973-20.907 0.427 0 0-0.427-0.427-0.427-0.427-95.573-91.307-222.72-142.080-354.987-141.653-8.107 0.427-14.933-5.547-15.36-13.653 0-0.427 0-1.28 0-1.707v-475.307c57.173-140.373 176.64-246.613 322.987-286.293 7.68-2.133 50.773-15.36 58.027-15.36s50.347 13.227 58.027 15.36c146.773 39.68 266.24 145.493 322.987 286.293v475.733c0.427 8.107-5.547 14.933-13.653 15.36-0.427-0.427-0.853-0.427-1.707-0.427zM562.347 22.613l-50.347-13.653-50.347 13.653c-80.64 22.187-154.027 66.133-211.627 126.72 43.52 145.067 196.267 226.987 341.333 183.467 87.467-26.453 156.16-94.72 183.040-181.76-58.027-61.013-131.413-104.96-212.053-128.427zM862.72 283.307c-17.067-38.4-39.253-74.24-65.707-106.667-34.987 91.733-111.36 161.28-206.080 187.307 81.493 43.947 112.213 145.493 68.693 226.987-43.947 81.493-145.493 112.213-226.987 68.693-54.613-29.013-88.32-85.76-88.32-147.627 0.427-61.867 34.133-118.187 88.32-148.053-95.147-25.173-171.947-95.147-205.653-187.307-26.88 32.427-49.067 68.267-65.707 106.667v457.387c129.707 3.413 254.293 53.333 350.72 140.373 96.853-86.187 221.013-136.107 350.72-140.373v-457.387zM512.427 375.040c-75.947 0-137.387 61.44-137.387 137.387s61.44 137.387 137.387 137.387c75.947 0 137.387-61.44 137.387-137.387v0c0.427-75.52-60.587-136.96-136.107-137.387-0.853-0.427-1.28-0.427-1.28 0v0z" />
<glyph unicode="&#xe904;" glyph-name="EP-Icons_Attach" d="M926.123 749.013c-73.813 73.813-193.707 73.813-267.52 0l-438.613-438.187c-45.653-42.667-47.787-113.92-5.547-159.147 42.667-45.653 113.92-47.787 159.147-5.547 2.133 1.707 3.84 3.84 5.547 5.547l338.773 338.773-51.2 51.2-338.773-338.773c-15.787-15.787-41.387-15.787-57.173 0s-15.787 41.387 0 57.173v0l438.613 438.613c48.64 42.667 122.88 37.547 165.547-11.093 38.827-44.373 38.827-110.080 0-154.453l-429.653-429.653c-75.52-75.52-197.973-75.52-273.92 0-75.52 75.52-75.52 197.973 0 273.92l474.453 474.453-51.2 51.2-474.027-475.307c-103.68-103.68-103.68-272.213 0-375.893s272.213-103.68 375.893 0v0l429.653 429.653c73.813 73.813 73.813 193.707 0 267.52v0z" />
<glyph unicode="&#xe905;" glyph-name="EP-Icons_Back" d="M981.333 506.453h-715.52l328.533 328.533-82.347 82.347-469.333-469.333 469.333-469.333 81.92 81.92-328.533 328.533h715.947v117.333z" />
<glyph unicode="&#xe906;" glyph-name="EP-Icons_Birthday-Wishes" d="M42.667 917.333v-938.667h938.667v938.667h-938.667zM934.4 25.6h-844.8v844.8h844.8v-844.8zM386.56 329.387l-7.253-24.747c-2.987-9.813 2.987-20.48 13.227-23.040 1.707-0.427 2.987-0.853 4.693-0.853h18.347v-145.067c1.28-10.24 11.093-17.493 21.333-15.787 8.107 1.28 14.933 7.68 15.787 15.787v145.067h18.347c10.24 0 18.773 8.533 18.347 19.2 0 1.707-0.427 2.987-0.853 4.693l-7.253 24.747c16.213 5.12 31.573 12.8 45.227 22.613 2.987-6.4 9.813-10.667 16.64-10.667h19.627v-205.653c-1.707-10.24 5.547-19.627 15.787-21.333s19.627 5.547 21.333 15.787c0.427 1.707 0.427 3.84 0 5.547v205.653h19.627c10.24 0 18.347 8.107 18.773 18.347 0 1.707-0.427 3.413-0.853 5.12l-7.68 27.307c34.987 11.093 65.707 32.853 87.893 61.867 27.733 36.693 43.093 81.493 42.667 128 4.693 103.68-75.093 191.573-178.773 197.12-58.88-0.853-113.067-31.573-144.64-81.067h-2.987c-98.987-5.12-175.36-89.173-170.667-188.16-0.427-43.947 14.080-87.040 40.533-122.027 21.333-27.733 49.92-47.787 82.773-58.453zM591.36 415.573c-2.56-4.267-3.413-9.813-2.133-14.933l5.973-22.187h-28.16l4.693 20.053c21.76 33.28 32.853 71.68 32.853 111.36 2.133 81.493-49.067 155.307-126.293 181.76 25.173 31.573 63.147 49.92 103.253 50.347 83.2-5.547 146.347-76.8 141.653-160 3.84-74.667-46.507-141.227-119.467-158.293-5.12-0.853-9.387-3.84-12.373-8.107v0zM454.827 360.96c-5.12-0.853-9.813-3.84-12.373-8.533s-3.413-9.813-2.133-14.933l5.547-19.627h-23.893l5.547 19.627c1.28 5.12 0.853 10.667-2.133 14.933-2.987 4.693-7.253 7.68-12.373 8.533-68.693 15.787-116.053 78.507-112.64 148.907-4.267 78.507 55.040 145.92 133.547 151.040 78.507-5.12 138.24-72.533 133.547-151.040 0.427-32-8.96-63.573-26.027-90.453-1.707-1.28-2.56-2.987-3.413-5.12-19.2-27.733-49.067-46.933-83.2-53.333v0z" />
<glyph unicode="&#xe907;" glyph-name="EP-Icons_Call" d="M373.547 891.861l83.2-145.067c11.947-20.907 11.947-35.413-8.96-50.347-35.413-20.907-80.213-41.387-88.747-80.213-20.907-68.267 165.973-394.24 237.227-412.16 35.413-8.96 77.227 17.92 115.627 38.4 20.907 11.947 32.427 2.987 47.36-17.92l83.2-142.080c11.947-23.467 17.92-38.4-8.96-53.333-41.387-26.027-87.893-43.093-136.533-50.347-296.533-14.507-646.4 590.080-483.413 838.827 30.293 38.4 68.693 69.973 112.64 91.733 23.893 17.92 35.413 2.987 47.36-17.493z" />
<glyph unicode="&#xe908;" glyph-name="EP-Icons_Camera" d="M176.64 56.832c-73.813 0.427-133.973 60.16-133.973 133.973v402.347c0.427 73.813 60.16 133.973 133.973 133.973h111.36l36.267 90.453c5.12 12.8 17.493 21.333 31.147 21.333h312.747c13.653 0 26.027-8.533 31.147-21.333l36.267-90.453h111.36c73.813 0 133.973-60.16 134.4-133.973v-402.347c-0.427-73.813-60.16-133.973-133.973-133.973h-670.72zM176.64 123.819h670.293c36.693-0.427 66.56 28.587 66.987 65.28 0 0.427 0 1.28 0 1.707v402.347c0.427 36.693-28.587 66.56-65.28 66.987-0.427 0-1.28 0-1.707 0h-133.973c-13.653 0-26.027 8.107-31.147 20.907l-36.267 90.88h-267.52l-36.267-90.88c-5.12-12.8-17.493-20.907-31.147-20.907h-133.973c-36.693 0.427-66.56-28.587-66.987-65.28 0-0.427 0-1.28 0-1.707v-402.347c-0.427-36.693 28.587-66.56 65.28-66.987 0.853 0 1.28 0 1.707 0v0zM512 179.712c-117.333 0-212.48 95.147-212.48 212.48s95.147 212.48 212.48 212.48 212.48-95.147 212.48-212.48v0c-0.427-117.333-95.147-212.053-212.48-212.48zM512 246.699c80.213 0 145.493 65.28 145.493 145.493s-65.28 145.493-145.493 145.493c-80.213 0-145.493-65.28-145.493-145.493v0c-0.427-79.787 64-145.067 143.787-145.493 0.853 0 1.28 0 1.707 0v0z" />
<glyph unicode="&#xe909;" glyph-name="EP-Icons_Car" d="M807.595 483.797c-44.8 0-81.067-36.267-81.067-81.067s36.267-81.067 81.067-81.067c44.8 0 81.067 36.267 81.067 81.067 0 45.227-36.267 81.067-81.067 81.067zM807.595 360.917c-23.040 0-41.813 18.773-41.813 41.813s18.773 41.813 41.813 41.813c23.040 0 41.813-18.773 41.813-41.813 0.427-22.613-18.347-41.387-41.813-41.813zM216.235 483.797c-44.8 0-81.067-36.267-81.067-81.067s36.267-81.067 81.067-81.067c44.8 0 81.067 36.267 81.067 81.067 0 45.227-36.267 81.067-81.067 81.067zM216.235 360.917c-23.040 0-41.813 18.773-41.813 41.813s18.773 41.813 41.813 41.813c23.040 0 41.813-18.773 41.813-41.813 0-22.613-18.773-41.387-41.813-41.813zM877.141 578.517l-52.053 158.72c-18.347 46.080-62.72 76.8-112.213 77.227h-401.493c-49.493-0.427-93.867-31.147-112.213-77.227l-52.053-158.72c-59.733-7.253-104.533-58.027-104.533-118.187v-200.533c0-33.707 27.307-61.013 61.013-61.013h1.28v-66.56c0-28.16 23.040-51.2 51.2-51.2h65.707c28.16 0 51.2 23.040 51.2 51.2v66.56h477.013v-66.56c0-28.16 23.040-51.2 51.2-51.2h65.707c28.16 0 51.2 23.040 51.2 51.2v66.56h1.28c33.707 0 61.013 27.307 61.013 61.013v200.533c0.853 60.16-43.947 110.933-103.253 118.187zM236.288 725.291c12.8 30.293 42.24 49.92 75.093 50.347h401.493c32.853-0.853 62.293-20.48 75.093-50.347l47.787-145.493h-647.253l47.787 145.493zM234.581 132.651c0-6.827-5.547-12.373-12.373-12.373h-65.707c-6.827 0-12.373 5.547-12.373 12.373v66.56h90.453v-66.56zM879.701 132.651c0-6.827-5.547-12.373-12.373-12.373h-65.707c-6.827 0-12.373 5.547-12.373 12.373v66.56h90.453c0 0 0-66.56 0-66.56zM942.421 260.224c0-12.373-9.813-22.187-22.187-22.187h-816.213c-12.373 0-22.187 9.813-22.187 22.187v200.533c0 43.947 35.84 79.787 79.787 79.787h701.013c43.947 0 79.787-35.84 79.787-79.787v-200.533zM410.368 369.877h203.093c10.667 0 19.627 8.533 19.627 19.627 0 10.667-8.533 19.627-19.627 19.627v0h-203.093c-10.667 0-19.627-8.533-19.627-19.627 0.427-11.093 8.96-19.627 19.627-19.627zM655.701 336.171h-287.573c-10.667 0-19.627-8.533-19.627-19.627 0-10.667 8.533-19.627 19.627-19.627h287.573c10.667 0 19.627 8.533 19.627 19.627s-8.96 19.627-19.627 19.627v0z" />
<glyph unicode="&#xe90a;" glyph-name="EP-Icons_Chat" d="M887.467 917.333h-750.933c-52.053 0-93.867-41.813-93.867-93.867v0-844.8l187.733 187.733h657.067c52.053 0 93.867 41.813 93.867 93.867v0 563.2c0 52.053-41.813 93.867-93.867 93.867v0zM887.467 260.267h-657.067l-93.867-93.867v657.067h750.933v-563.2z" />
<glyph unicode="&#xe90b;" glyph-name="EP-Icons_Check-Box" d="M938.667 866.133c-10.667-0.427-20.48-5.12-28.16-12.8-107.947-112.64-350.72-373.333-473.173-501.76l-143.36 126.72c-17.067 14.933-42.667 13.227-57.6-3.413-14.933-17.067-13.227-42.667 3.413-57.6l173.227-153.173c16.64-13.653 41.387-12.8 56.747 2.56 113.92 119.040 386.987 412.587 499.627 530.347 15.787 16.213 15.36 41.813-0.853 57.6-7.68 8.107-18.773 12.373-29.867 11.52v0zM42.667 764.16v-693.333c0.853-22.187 18.773-40.107 40.96-40.96h713.813c22.187 0.853 40.107 18.773 40.96 40.96v357.12c0 22.613-18.347 40.96-40.96 40.96s-40.96-18.347-40.96-40.96v-316.16h-632.32v611.413h550.827c22.613 0 40.96 18.347 40.96 40.96s-18.347 40.96-40.96 40.96h-591.36c-22.187-1.707-39.68-19.2-40.96-40.96v0z" />
<glyph unicode="&#xe90c;" glyph-name="EP-Icons_Close-1" d="M512 917.333c-259.413 0-469.333-209.92-469.333-469.333s209.92-469.333 469.333-469.333 469.333 209.92 469.333 469.333c0.427 258.987-209.493 468.907-468.48 469.333-0.427 0-0.427 0-0.853 0zM746.667 279.467l-66.133-66.133-168.533 168.533-168.533-168.533-66.133 66.133 168.533 168.533-168.533 168.533 66.133 66.133 168.533-168.533 168.533 168.533 66.133-66.133-168.533-168.533 168.533-168.533z" />
<glyph unicode="&#xe90d;" glyph-name="EP-Icons_Close" d="M598.613 448l364.8 364.8c23.893 23.893 23.893 62.72 0 86.613s-62.72 23.893-86.613 0l-364.8-364.8-364.8 364.8c-23.893 23.893-62.72 23.893-86.613 0s-23.893-62.72 0-86.613l364.8-364.8-364.8-364.8c-23.893-23.893-23.893-62.72 0-86.613s62.72-23.893 86.613 0l364.8 364.8 364.8-364.8c23.893-23.893 62.72-23.893 86.613 0s23.893 62.72 0 86.613l-364.8 364.8z" />
<glyph unicode="&#xe90e;" glyph-name="EP-Icons_Comments" d="M981.333 754.773c0 65.28-52.907 117.76-117.76 117.76v0h-703.147c-65.28 0-117.76-52.907-117.76-117.76v0-395.093c0-65.28 52.48-118.187 117.76-118.187 0 0 0 0 0 0h104.96v-218.027l339.627 218.027h258.133c65.28 0 117.76 52.907 117.76 117.76 0 0 0 0 0 0v395.52zM934.4 359.68c0-39.253-31.573-70.827-70.827-70.827v0h-271.36l-279.467-177.92v177.92h-152.32c-39.253 0-70.827 31.573-70.827 70.4 0 0 0 0 0 0v395.093c0 39.253 31.573 70.827 70.4 70.827 0 0 0.427 0 0.427 0h702.72c39.253 0 70.827-31.573 70.827-70.4 0 0 0-0.427 0-0.427v-394.667z" />
<glyph unicode="&#xe90f;" glyph-name="EP-Icons_Cup" d="M546.133 64.427h-61.867c-8.533 0.427-15.787-6.4-16.213-14.933 0-0.427 0-0.853 0-1.28-1.28-7.68 4.267-14.933 11.947-16.213 1.28 0 2.56 0 3.84 0h61.867c8.96 0 16.213 7.253 16.213 16.213 0.427 8.96-6.827 16.213-15.787 16.213zM912.64 768.427h-117.76v39.68c21.76 8.107 36.267 29.44 35.84 52.907-0.853 32-27.307 57.173-59.307 56.32-0.427 0-0.853 0-1.28 0h-513.28c-30.72-1.28-55.467-25.6-57.173-56.32 2.133-23.467 17.067-43.947 39.253-52.907v-39.68h-121.173c-11.093 0.853-20.48-7.253-21.333-17.92 0-0.427 0-0.853 0-1.707v-128.853c2.56-83.2 72.533-148.48 155.733-145.493 0.427 0 0.853 0 1.28 0h17.92c2.987-5.973 6.4-11.52 10.667-16.64 29.013-37.547 66.987-66.987 110.507-85.76v-6.4c0.427-26.453 20.053-49.067 46.507-52.907-24.747-72.533-67.84-151.893-117.76-151.893h-42.667c-10.24 0-18.773-6.827-21.333-16.64l-21.333-145.493c0-6.4 0-9.813 3.413-13.227 3.84-3.413 8.96-5.973 14.080-6.4h516.693c5.547 0 10.667 2.56 14.080 6.4 3.413 3.413 7.253 9.813 3.413 13.227l-21.333 145.493c0 9.813-10.667 16.64-21.333 16.64h-46.080c-32 0-57.173 29.867-71.253 52.907-18.773 29.44-33.28 61.867-42.667 95.573 25.6 5.12 44.8 26.88 46.507 52.907v6.4c43.093 19.627 80.64 49.067 110.507 85.76 2.987 5.973 6.4 11.52 10.667 16.64h17.92c83.2-3.413 153.173 61.013 156.587 144.213 0 0.427 0 0.853 0 1.28v132.267c2.987 7.68-0.853 16.213-8.533 18.773-2.133 0.853-4.267 0.853-5.973 0.853v0zM139.093 619.947v112.213h99.84v-128.853c0.427-30.72 6.4-61.013 17.92-89.173-60.587-4.267-113.493 41.387-117.333 101.973-0.427 1.28-0.427 2.56-0.427 3.84zM748.373 11.52h-466.773l14.080 109.227h442.027l10.667-109.227zM627.627 157.013h-224.427c10.24 11.52 19.627 23.467 28.587 36.267 22.187 35.84 39.253 74.667 49.92 115.627h67.84c11.947-39.253 28.587-77.227 49.92-112.213 7.253-14.507 17.067-27.733 28.16-39.68zM573.867 345.6h-117.333c-11.093-0.853-20.48 7.253-21.333 18.347 0 0.427 0 0.853 0 1.707 0 13.227 7.253 19.627 21.333 19.627h117.333c11.093 0.853 20.48-7.253 21.333-18.347s-7.253-20.48-18.347-21.333c-0.853-0.427-2.133-0.427-2.987 0v0zM616.533 401.92c-11.52 10.667-26.88 16.64-42.667 16.64h-117.333c-15.787 0.427-31.147-5.547-42.667-16.64-80.64 33.28-133.973 110.933-135.253 198.4v204.8h149.76c11.093-0.853 20.48 7.253 21.333 18.347 0 0.427 0 0.853 0 1.707 0 13.227-10.667 16.64-24.747 16.64h-167.68c-11.093-0.853-20.48 7.253-21.333 18.347 0 0.427 0 0.853 0 1.707 0 13.227 7.253 19.627 21.333 19.627h516.693c11.093 0.853 20.48-7.253 21.333-18.347 0-0.427 0-0.853 0-1.707 0-13.227-7.253-19.627-21.333-19.627h-168.107c-11.093 0.853-20.48-7.253-21.333-18.347 0-0.427 0-0.853 0-1.707 0-13.227 7.253-19.627 21.333-19.627h149.76v-204.8c-5.547-86.613-59.307-162.133-139.093-195.413v0zM890.88 619.947c-2.987-62.293-55.040-110.933-117.76-109.227 11.093 28.587 17.067 58.88 17.92 89.173v132.267h99.84v-112.213zM513.28 826.027c8.533-0.427 15.787 6.4 16.213 14.933 0 0.427 0 0.853 0 1.28 1.28 7.68-4.267 14.933-11.947 16.213-1.28 0-2.56 0-3.84 0v0c-8.533 0.427-15.787-6.4-16.213-14.933 0-0.427 0-0.853 0-1.28-0.427-8.533 6.4-15.787 14.933-16.213 0 0 0.427 0 0.853 0z" />
<glyph unicode="&#xe910;" glyph-name="EP-Icons_Delete" d="M688.213 858.88l-58.88 58.453h-234.667l-58.88-58.453h-175.787v-117.76h704v117.76zM218.453 96c0-64.853 52.48-117.333 117.333-117.333h352c64.853 0 117.333 52.48 117.333 117.333v586.667h-586.667v-586.667z" />
<glyph unicode="&#xe911;" glyph-name="EP-Icons_Down" d="M871.68 737.28l-359.68-359.68-359.68 359.68-109.653-109.227 469.333-469.333 469.333 469.333-109.653 109.227z" />
<glyph unicode="&#xe912;" glyph-name="EP-Icons_Download" d="M512 917.333c-259.413 0-469.333-209.92-469.333-469.333s209.92-469.333 469.333-469.333 469.333 209.92 469.333 469.333-209.92 469.333-469.333 469.333zM478.293 461.227v275.627h67.84v-275.627h103.253l-119.893-210.773h-34.56l-119.893 210.773h103.253zM698.453 159.147h-372.907v67.84h372.48l0.427-67.84z" />
<glyph unicode="&#xe913;" glyph-name="EP-Icons_Edit" d="M42.667 174.080v-195.413h195.413l576.853 576.427-195.413 195.84-576.853-576.853zM965.973 706.56c20.48 20.053 20.48 52.907 0 73.387 0 0 0 0 0 0l-122.027 122.027c-20.053 20.48-52.907 20.48-73.387 0 0 0 0 0 0 0l-95.573-95.573 195.413-195.413 95.573 95.573z" />
<glyph unicode="&#xe914;" glyph-name="EP-Icons_Email" d="M887.467 823.467h-750.933c-51.627-0.427-93.44-42.24-93.44-93.867l-0.427-563.2c0-51.627 42.24-93.867 93.867-93.867h750.933c51.627 0 93.867 42.24 93.867 93.867v563.2c0 51.627-42.24 93.867-93.867 93.867zM887.467 635.733l-375.467-234.667-375.467 234.667v93.867l375.467-234.667 375.467 234.667v-93.867z" />
<glyph unicode="&#xe915;" glyph-name="EP-Icons_Experience" d="M887.467 706.133h-187.733v93.867c0 52.053-41.813 93.867-93.867 93.867h-187.733c-52.053 0-93.867-41.813-93.867-93.867v-93.867h-187.733c-51.627 0.427-93.44-40.96-93.867-92.16 0-0.427 0-0.853 0-1.707v-516.267c0-52.053 41.813-93.867 93.867-93.867h750.933c52.053 0 93.867 41.813 93.867 93.867v516.267c0 52.053-41.813 93.867-93.867 93.867zM605.867 706.133h-187.733v93.867h187.733v-93.867z" />
<glyph unicode="&#xe916;" glyph-name="EP-Icons_Explore-Filled" d="M512 917.333c-259.413 0-469.333-209.92-469.333-469.333s209.92-469.333 469.333-469.333 469.333 209.92 469.333 469.333-209.92 469.333-469.333 469.333zM687.36 529.493l-81.493-175.36-350.72-162.987 162.987 350.72 350.72 162.987-81.493-175.36zM546.987 448c0-19.323-15.664-34.987-34.987-34.987s-34.987 15.664-34.987 34.987c0 19.323 15.664 34.987 34.987 34.987s34.987-15.664 34.987-34.987z" />
<glyph unicode="&#xe917;" glyph-name="EP-Icons_Explore-Outline" d="M511.915-21.163c-259.413 0-469.333 209.92-469.333 469.333s209.92 469.333 469.333 469.333 469.333-209.92 469.333-469.333c-0.427-259.413-210.347-469.333-469.333-469.333zM511.915 832.171c-212.053 0-384-171.947-384-384s171.947-384 384-384 384 171.947 384 384v0c0 212.053-171.947 383.573-384 384v0zM205.141 141.397l194.987 418.56 418.56 194.56-194.56-418.56-418.987-194.56zM461.141 498.944l-88.32-189.44 189.44 88.32 88.32 189.44-189.44-88.32zM546.901 448.171c0-19.323-15.664-34.987-34.987-34.987s-34.987 15.664-34.987 34.987c0 19.323 15.664 34.987 34.987 34.987s34.987-15.664 34.987-34.987z" />
<glyph unicode="&#xe918;" glyph-name="EP-Icons_Eye" d="M414.848 442.88c-7.253 7.253-18.773 7.253-26.027 0s-7.253-18.773 0-26.027c7.253-7.253 18.773-7.253 26.027 0 7.253 6.827 7.253 18.773 0 26.027 0.427-0.427 0.427-0.427 0 0zM512.213 411.264c-30.293 0-55.040-24.747-55.040-55.040s24.747-55.040 55.040-55.040c30.293 0 55.040 24.747 55.040 55.040v0c-0.427 30.72-24.747 55.040-55.040 55.040zM512.213 338.304c-10.24 0-18.347 8.107-18.347 18.347s8.107 18.347 18.347 18.347 18.347-8.107 18.347-18.347v0c-0.427-10.24-8.533-18.347-18.347-18.347zM511.915 502.912c-20.053 0-40.107-4.267-58.88-12.373-8.96-4.693-12.8-15.36-8.533-24.747 4.267-8.533 14.080-12.373 23.040-8.96 14.080 5.973 29.013 9.387 43.947 9.387 60.587 0 110.080-49.067 110.080-110.080s-49.067-109.653-109.653-109.653-110.080 49.067-110.080 110.080v0c0 0.427 0 1.28 0 1.707 0.427 10.24-7.253 18.773-17.067 19.2s-18.773-7.253-19.2-17.067c0-0.427 0-0.853 0-1.28 0-0.853 0-1.707 0-2.56 0-81.067 65.707-146.347 146.347-146.773 81.067 0 146.347 65.707 146.773 146.347 0 81.067-65.707 146.773-146.773 146.773 0 0 0 0 0 0zM511.872 777.813c-9.813 0-18.347-8.107-18.347-18.347v-110.080c-0.427-10.24 7.253-18.773 17.493-19.2s18.773 7.253 19.2 17.493c0 0.427 0 0.853 0 1.707v110.080c0 10.24-8.107 18.347-18.347 18.347zM307.2 642.176l-77.653 77.653c-6.827 7.253-18.347 7.68-26.027 0.427-7.253-6.827-7.68-18.773-0.853-26.027 0.427-0.427 0.427-0.427 0.853-0.853l77.653-77.653c6.827-7.253 18.773-7.68 26.027-0.853s7.68 18.773 0.853 26.027c-0.427 0.427-0.427 0.853-0.853 1.28zM820.309 719.829c-7.253 7.253-18.773 7.253-26.027 0l-77.653-77.653c-7.253-6.827-7.68-18.773-0.853-26.027s18.773-7.68 26.027-0.853c0.427 0.427 0.427 0.427 0.853 0.853l77.653 77.653c7.253 7.253 7.253 18.773 0 26.027zM976.213 353.451c-116.053 131.84-288.853 241.067-464.213 241.067s-348.16-109.653-464.213-241.067c-7.253-7.68-6.827-19.2 0.853-26.027 7.253-6.827 19.2-6.4 26.027 0.853 0.427 0.427 0.427 0.427 0.853 0.853 3.84 4.267 8.107 8.96 11.947 13.227 160.853-234.667 481.28-294.827 716.373-133.973 52.48 35.84 97.707 81.493 133.973 133.973 4.267-4.267 8.107-8.96 11.947-13.227 6.4-7.68 17.92-8.96 26.027-2.133 7.68 6.4 8.96 17.92 2.133 26.027-0.853-0.427-1.28 0-1.707 0.427zM512 155.051c-160.427 0-310.187 80.64-398.933 214.187 65.28 64 216.32 188.587 398.933 188.587s333.653-124.587 398.933-188.587c-88.747-133.973-238.507-214.187-398.933-214.187v0z" />
<glyph unicode="&#xe919;" glyph-name="EP-Icons_Favourite-Filled" d="M512 17.493l-67.84 61.867c-241.92 219.307-401.493 363.52-401.493 541.013-1.28 141.227 111.787 256.853 253.013 258.133 1.707 0 3.413 0 5.12 0 81.067-0.427 158.293-36.267 211.2-98.133 52.907 61.867 130.133 97.28 211.2 98.133 141.227 1.28 256.853-111.787 258.133-253.013 0-1.707 0-3.413 0-5.12 0-177.493-159.573-322.133-401.067-541.44l-68.267-61.44z" />
<glyph unicode="&#xe91a;" glyph-name="EP-Icons_Favourite-Outline" d="M723.2 878.507c-81.067-0.427-158.293-36.267-211.2-98.133-52.907 61.867-130.133 97.28-211.2 98.133-141.227 1.28-256.853-111.787-258.133-253.013 0-1.707 0-3.413 0-5.12 0-177.493 159.573-322.133 401.067-541.44l68.267-61.44 67.84 61.867c241.92 219.307 401.493 363.52 401.493 541.013 1.28 141.227-111.787 256.853-253.013 258.133-1.707 0-3.413 0-5.12 0zM516.693 148.907l-4.693-4.693-4.693 4.693c-223.573 202.24-370.773 335.787-370.773 471.467-2.133 88.747 67.84 162.133 156.587 164.267 2.56 0 5.12 0 7.68 0 72.96-0.427 138.667-43.947 167.68-110.933h87.893c28.587 66.987 94.293 110.507 167.253 110.933 88.747 2.133 162.133-67.84 164.267-156.587 0-2.56 0-5.12 0-7.68-0.427-135.68-147.627-269.227-371.2-471.467z" />
<glyph unicode="&#xe91b;" glyph-name="EP-Icons_Filter" d="M978.347 855.893c-4.693 10.667-15.36 17.493-27.307 17.493h-878.507c-11.52 0-22.187-6.827-27.307-17.493-4.693-10.667-3.413-23.040 4.267-32l344.32-407.467v-276.48c0-11.52 6.4-21.76 16.64-26.88l175.787-87.893c9.387-4.693 20.48-4.267 29.013 1.28 8.96 5.547 14.080 14.933 14.080 25.6v364.373l344.32 407.467c8.107 8.96 9.813 21.76 4.693 32zM576.853 447.147c-4.693-5.547-7.253-12.373-7.253-19.2v-326.827l-115.627 58.027v268.8c0 7.253-2.56 14.080-7.253 19.2l-309.333 366.507h749.653l-310.187-366.507z" />
<glyph unicode="&#xe91c;" glyph-name="EP-Icons_Fun-Filled" d="M512 917.333c-259.413 0-469.333-209.92-469.333-469.333s209.92-469.333 469.333-469.333 469.333 209.92 469.333 469.333-209.92 469.333-469.333 469.333zM663.467 599.467c33.28 0 60.587-27.307 60.587-60.587s-27.307-60.587-60.587-60.587-60.587 27.307-60.587 60.587v0c0 33.28 26.88 60.587 60.587 60.587 0 0 0 0 0 0zM360.533 599.467c33.28 0 60.587-27.307 60.587-60.587s-27.307-60.587-60.587-60.587-60.587 27.307-60.587 60.587v0c0 33.28 27.307 60.587 60.587 60.587 0 0 0 0 0 0zM729.173 277.333c-99.84-119.893-278.187-136.107-398.080-36.267-13.227 10.667-25.173 23.040-36.267 36.267-10.24 13.227-8.107 32.427 5.12 42.667 12.8 9.813 30.72 8.107 41.387-3.84 78.507-94.293 218.88-107.093 313.173-28.16 10.24 8.533 19.627 17.92 28.16 28.16 11.093 12.373 30.293 13.653 42.667 2.56 12.373-10.667 14.080-28.587 3.84-41.387z" />
<glyph unicode="&#xe91d;" glyph-name="EP-Icons_Fun-Outline" d="M512 917.333c-259.413 0-469.333-209.92-469.333-469.333s209.92-469.333 469.333-469.333 469.333 209.92 469.333 469.333-209.92 469.333-469.333 469.333zM512 69.547c-209.067 0-378.453 169.387-378.453 378.453s169.387 378.453 378.453 378.453c209.067 0 378.453-169.387 378.453-378.453s-169.387-378.453-378.453-378.453zM360.533 478.293c33.28 0 60.587 27.307 60.587 60.587s-27.307 60.587-60.587 60.587c-33.28 0-60.587-27.307-60.587-60.587s27.307-60.587 60.587-60.587c0 0 0 0 0 0zM663.467 478.293c33.28 0 60.587 27.307 60.587 60.587s-27.307 60.587-60.587 60.587-60.587-27.307-60.587-60.587c0-33.28 26.88-60.587 60.587-60.587 0 0 0 0 0 0zM671.147 340.907c-72.96-87.893-203.093-99.84-290.987-27.307-9.813 8.107-18.773 17.067-27.307 27.307-15.787 19.627-44.373 22.613-64 7.253-19.627-15.787-22.613-44.373-7.253-64 0.427-0.427 0.853-0.853 1.28-1.28 105.387-126.293 293.12-143.36 419.413-37.973 13.653 11.52 26.453 24.32 37.973 37.973 16.213 18.773 14.507 47.787-4.693 64-18.773 16.213-47.787 14.507-64-4.693 0-0.427-0.427-0.853-0.427-1.28z" />
<glyph unicode="&#xe91e;" glyph-name="EP-Icons_Hamberger" d="M42.667 154.453h938.667v117.333h-938.667v-117.333zM42.667 389.12h938.667v117.333h-938.667v-117.333zM42.667 741.12v-117.333h938.667v117.333h-938.667z" />
<glyph unicode="&#xe91f;" glyph-name="EP-Icons_Home-Filled" d="M42.667 359.253h104.107v-380.587h286.72v297.387h156.587v-297.387h286.72v380.587h104.533l-469.333 558.080-469.333-558.080z" />
<glyph unicode="&#xe920;" glyph-name="EP-Icons_Home-Outline" d="M42.667 359.253h104.107v-380.587h286.72v297.387h156.587v-297.387h286.72v380.587h104.533l-469.333 558.080-469.333-558.080zM798.72 437.76v-380.587h-130.56v296.96h-312.747v-297.387h-130.133v380.587h-15.787l302.507 354.987 302.507-354.56h-15.787z" />
<glyph unicode="&#xe921;" glyph-name="EP-Icons_Horizontal-Three-Dots" d="M277.333 448c0 64.853-52.48 117.333-117.333 117.333s-117.333-52.48-117.333-117.333 52.48-117.333 117.333-117.333c64.853 0 117.333 52.48 117.333 117.333zM394.667 448c0-64.853 52.48-117.333 117.333-117.333s117.333 52.48 117.333 117.333-52.48 117.333-117.333 117.333c-64.853 0-117.333-52.48-117.333-117.333zM746.667 448c0-64.853 52.48-117.333 117.333-117.333s117.333 52.48 117.333 117.333-52.48 117.333-117.333 117.333c-64.853 0-117.333-52.48-117.333-117.333z" />
<glyph unicode="&#xe922;" glyph-name="EP-Icons_House-Keeping" d="M538.027 388.267l66.56 66.56c13.227 13.227 19.627 31.573 17.067 50.347l306.347 305.92c14.507 14.507 14.507 38.4 0 52.907-14.933 14.080-37.973 14.080-52.907 0l-306.347-305.92c-2.56 0.427-4.693 0.427-7.253 0.427-16.213 0-31.573-6.4-43.093-17.92l-66.133-66.133c-20.907 13.653-46.080 19.627-70.827 16.213-104.107-11.093-201.813-55.893-278.187-127.147-18.773-20.053-23.040-49.92-10.24-74.667 54.187-113.92 145.92-206.080 259.84-259.84 24.32-12.373 54.187-8.533 74.24 10.24 71.68 76.373 116.053 174.080 127.147 278.187 2.987 24.747-2.56 49.92-16.213 70.827zM888.747 849.92c6.827 6.827 17.92 6.827 25.173 0 6.827-6.827 6.827-17.92 0-25.173l-298.667-298.667c-2.987 5.12-6.4 10.24-10.667 14.507s-8.96 8.107-14.507 10.667l298.667 298.667zM532.48 526.507c16.213 15.36 41.813 15.36 58.027 0 15.787-16.213 15.787-41.813 0-58.027l-64.853-64.853-1.707 1.707-56.32 56.747 64.853 64.427zM534.613 320c-10.667-99.84-52.907-193.28-121.6-266.667-8.107-7.68-19.2-12.373-30.72-11.947-16.213 1.707-31.147 7.68-43.947 17.493 56.32 78.080 103.68 161.707 142.080 250.027 2.133 5.12 0 10.667-5.12 13.227s-10.667 0-13.227-5.12c-37.973-87.467-85.333-170.667-141.227-247.893-22.187 12.8-43.52 26.88-63.573 43.093 75.093 79.787 157.013 184.32 189.867 226.56 3.413 4.267 2.56 10.667-1.707 13.653-4.267 3.413-10.667 2.56-13.653-1.707v0c-32.427-42.24-114.773-146.773-189.44-226.133-19.627 16.64-37.973 34.56-54.613 54.613 79.36 74.667 183.893 157.013 226.133 189.44 4.267 3.413 4.693 9.813 1.28 14.080-3.413 3.84-8.96 4.693-13.227 1.707-42.24-32.427-146.773-114.773-226.56-189.867-15.36 20.053-29.867 41.387-42.667 63.573 77.227 55.893 160.427 103.253 247.893 141.227 4.693 2.56 6.827 8.533 4.267 13.227-2.133 4.693-7.68 6.4-12.373 4.693-88.32-38.4-171.947-85.76-250.027-142.080v0c-4.267 7.68-8.107 15.36-12.373 23.040-8.96 17.067-5.973 37.547 7.253 51.627 73.387 68.267 166.827 110.933 266.667 121.6 3.413 0.427 7.253 0.853 11.093 0.853 22.613 0 44.8-8.96 61.013-25.173l54.613-54.613c18.347-19.627 27.307-46.080 23.893-72.533v0zM913.067 230.827c-2.133 15.36-9.813 29.44-21.333 39.253-28.587 24.747-62.72 3.84-85.76 31.147-8.533 9.813-11.947 23.040-9.813 35.413 5.12 32.427 11.52 65.28 17.067 91.307 4.693 18.773 8.107 37.973 9.813 57.6 0.853 44.373-34.133 81.067-78.507 81.92s-81.067-34.133-81.92-78.507c0-1.28 0-2.56 0-3.84 2.133-19.627 5.12-38.827 10.24-57.6 5.547-26.027 11.947-58.453 17.067-90.88 3.84-24.32-12.8-46.933-36.693-50.773-2.133-0.427-4.693-0.427-6.827-0.427-34.56 5.12-67.413-17.067-75.947-50.773l-32.427-160c-4.693-22.613 9.813-44.373 32.427-49.067 2.987-0.427 5.547-0.853 8.533-0.853h314.027c23.040 0 41.813 18.773 41.813 41.813 0 1.707 0 3.413-0.427 5.12l-21.333 159.147zM893.013 44.8h-313.6c-11.947 0-22.187 9.813-22.187 21.76 0 1.28 0 2.987 0.427 4.267l0.427 1.28 32 158.72c8.533 42.24 54.613 34.56 56.747 35.413 34.987 0 63.573 28.587 63.573 64 0 3.413-0.427 6.4-0.853 9.813-5.12 32.853-11.947 65.707-17.067 91.733-4.267 17.92-7.68 35.84-9.813 53.76-0.853 33.28 25.6 61.44 58.88 62.293s61.44-25.6 62.293-58.88c0-1.28 0-2.133 0-3.413-2.133-17.92-5.12-35.84-9.387-53.333-5.547-26.453-12.373-58.88-17.493-92.16-5.547-34.987 18.347-67.413 52.907-72.96 3.413-0.427 6.4-0.853 9.813-0.853 27.307 0 50.773-10.667 54.187-37.973l20.907-155.307 0.427-3.413c1.707-11.947-6.827-23.467-18.773-25.173-0.853 0.427-2.133 0.427-3.413 0.427v0zM862.72 238.507c-7.253 2.987-15.36 4.267-23.040 4.693-48.213 0-54.613 33.707-96.427 33.707v0c-43.093 0-46.507-33.707-96.427-33.707-4.267-0.853-29.867 5.547-34.133-17.067l-29.867-147.2c-0.853-5.12 2.56-10.667 7.68-11.52 0.427 0 1.28 0 2.133 0h288.427c5.12 0 9.813 4.267 9.813 9.387 0 0.427 0 1.28 0 1.707l-20.053 146.773c-0.427 5.547-3.413 10.24-8.107 13.227zM604.587 87.040l27.307 135.253c0 0.853 0.853 1.28 1.28 1.28 0 0 0 0 0 0h13.653c56.747 0 61.44 33.707 96.427 33.707 34.133 0 40.533-33.707 96.427-33.707 4.267-0.427 8.107-0.853 12.373-2.133l17.92-134.4h-265.387zM741.973 448c23.040 0 41.813 18.347 41.813 41.387s-18.347 41.813-41.387 41.813c-23.040 0-41.813-18.347-41.813-41.387 0 0 0 0 0 0 0-23.467 18.347-41.813 41.387-41.813zM741.973 511.573c11.947 0.427 22.613-8.96 23.040-20.907s-8.96-22.613-20.907-23.040c-0.853 0-1.28 0-2.133 0-11.947 0.427-21.76 10.667-20.907 23.040 0.427 11.093 9.387 20.48 20.907 20.907z" />
<glyph unicode="&#xe923;" glyph-name="EP-Icons_HR" d="M512.171 205.909c-133.547 0-241.92 108.373-241.92 241.92s108.373 241.92 241.92 241.92c133.547 0 241.92-108.373 241.92-241.92 0-133.12-108.373-241.493-241.92-241.92zM512.171 661.163c-117.76 0-212.907-95.573-212.907-212.907 0-117.76 95.573-212.907 212.907-212.907 117.76 0 212.907 95.573 212.907 212.907v0c-0.427 117.333-95.573 212.907-212.907 212.907v0zM571.733-21.333h-119.040c-7.253 0-13.227 5.547-13.653 12.8l-12.373 137.387c-28.16 7.253-54.613 18.347-79.787 32.853l-105.813-88.32c-5.547-4.267-13.227-3.84-18.347 0.853l-84.053 84.053c-5.12 5.12-5.547 13.227-0.853 18.773l88.32 105.813c-14.507 25.173-25.6 52.053-32.853 79.787l-137.813 12.373c-7.253 0.427-12.8 6.4-12.8 13.227v119.040c0 7.253 5.547 13.227 12.8 13.653l137.387 12.373c7.253 28.16 18.347 54.613 32.853 79.787l-88.32 106.24c-4.693 5.547-4.267 13.653 0.853 18.773l84.053 84.053c5.12 5.12 13.227 5.547 18.773 0.853l105.813-88.32c25.173 14.080 51.627 25.173 79.787 32.853l12.373 137.387c0.427 6.827 6.4 12.373 13.227 12.8h119.040c7.253 0 13.227-5.547 13.653-12.8l12.373-137.387c28.16-7.253 54.613-18.347 79.787-32.853l105.387 87.893c5.547 4.693 13.653 4.267 18.773-0.853l84.053-84.053c5.12-5.12 5.547-13.227 0.853-18.773l-88.32-105.813c14.507-25.173 25.6-52.053 32.853-79.787l137.387-12.373c7.253-0.853 12.8-6.827 12.8-13.653v-118.613c0-7.253-5.547-13.227-12.8-13.653l-137.387-12.373c-7.253-28.16-18.347-54.613-32.853-79.787l88.32-105.813c4.693-5.547 4.267-13.653-0.853-18.773l-84.053-83.627c-5.12-5.12-13.227-5.547-18.773-0.853l-105.813 88.32c-25.173-14.507-52.053-25.6-79.787-32.853l-12.373-137.387c-0.427-7.68-5.973-12.8-12.8-13.227zM465.493 6.4h93.44l12.373 134.4c0.427 5.973 4.693 10.667 10.667 12.373 31.573 7.253 62.293 20.053 89.6 37.12 5.12 2.987 11.52 2.56 16.213-1.28l103.253-86.187 66.133 66.133-86.613 103.68c-3.84 4.693-4.267 11.093-1.28 16.213 17.067 27.733 29.867 58.027 37.12 89.6 1.28 5.973 6.4 10.24 12.373 10.667l134.4 12.373v93.44l-134.4 12.373c-5.973 0.427-10.667 4.693-12.373 10.667-7.253 31.573-20.053 62.293-37.12 89.6-2.987 5.12-2.56 11.52 1.28 16.213l86.613 103.68-66.133 66.133-103.68-86.613c-4.693-3.84-11.093-4.267-16.213-1.28-27.733 17.067-58.027 29.867-89.6 37.12-5.973 1.28-10.24 6.4-10.667 12.373l-12.373 134.4h-93.44l-11.947-134.4c-0.427-5.973-4.693-10.667-10.667-12.373-31.573-7.253-62.293-20.053-89.6-37.12-5.547-2.987-11.947-2.56-16.64 1.28l-103.253 86.187-66.133-66.133 86.613-103.68c3.84-4.693 4.267-11.093 1.28-16.213-17.067-27.733-29.867-58.027-37.12-89.6-1.28-5.973-6.4-10.24-12.373-10.667l-134.4-12.373v-93.44l134.4-12.373c5.973-0.427 10.667-4.693 12.373-10.667 7.253-31.573 20.053-62.293 37.12-89.6 2.987-5.12 2.56-11.52-1.28-16.213l-86.613-103.253 66.133-66.133 103.68 86.613c4.693 3.84 11.093 4.267 16.213 1.28 27.733-17.067 58.027-29.867 89.6-37.12 5.973-1.28 10.24-6.4 10.667-12.373l12.373-134.827zM593.493 320.427c-2.987 0-5.973 0.853-8.533 2.56l-72.96 53.333-72.96-53.333c-6.4-4.693-15.787-2.987-20.48 3.413-2.56 3.84-3.413 8.533-2.133 12.8l27.733 85.76-72.533 53.333c-6.827 4.693-8.107 13.653-3.413 20.48 2.56 3.84 7.253 5.973 11.947 5.973h90.453l27.733 85.76c2.133 5.973 7.68 9.813 13.653 9.813v0c6.4 0 11.947-3.84 13.653-9.813l27.733-85.76h90.453c8.107 0 14.507-6.4 14.507-14.507 0-4.693-2.133-8.96-5.973-11.947l-72.96-52.907 27.733-86.187c2.56-7.68-1.707-15.787-9.387-18.347-1.28 0-2.56-0.427-4.267-0.427v0zM424.533 475.733l45.653-33.28c5.12-3.84 7.253-10.24 5.12-16.213l-17.493-53.333 45.653 33.28c5.12 3.84 11.947 3.84 17.067 0l45.653-33.28-17.493 53.333c-2.133 5.973 0 12.373 5.12 16.213l45.653 33.28h-56.32c-6.4 0-11.947 3.84-13.653 9.813l-17.493 53.333-17.493-53.333c-1.707-5.973-7.253-9.813-13.653-9.813h-56.32z" />
<glyph unicode="&#xe924;" glyph-name="EP-Icons_Insight-Filled" d="M851.627 725.76l-55.040 55.040-69.973-70.4 55.040-55.040 69.973 70.4zM551.253 907.093h-78.080v-115.2h78.080v115.2zM864 400.64h117.333v78.080h-117.333v-78.080zM160 400.64v78.080h-117.333v-78.080h117.333zM295.68 710.4l-69.973 70.4-55.040-55.040 70.4-69.973 54.613 54.613zM676.267-11.093h-312.747v205.653c-124.16 86.613-154.453 256.853-68.267 381.013 86.613 124.16 256.853 154.453 381.013 68.267 124.16-86.613 154.453-256.853 68.267-381.013-18.347-26.453-41.813-49.92-68.267-68.267v-205.653z" />
<glyph unicode="&#xe925;" glyph-name="EP-Icons_Insight-Outline" d="M851.627 725.76l-55.040 55.040-69.973-70.4 55.040-55.040 69.973 70.4zM551.253 907.093h-78.080v-115.2h78.080v115.2zM864 400.64h117.333v78.080h-117.333v-78.080zM160 400.64v78.080h-117.333v-78.080h117.333zM295.68 710.4l-69.973 70.4-55.040-55.040 70.4-69.973 54.613 54.613zM676.267-11.093h-312.747v205.653c-124.16 86.613-154.453 256.853-68.267 381.013 86.613 124.16 256.853 154.453 381.013 68.267 124.16-86.613 154.453-256.853 68.267-381.013-18.347-26.453-41.813-49.92-68.267-68.267v-205.653zM441.6 67.413h156.587v171.52l19.627 11.093c93.44 54.187 125.44 173.653 71.68 267.093s-173.653 125.44-267.093 71.68-125.44-173.653-71.68-267.093c17.067-29.867 41.813-54.613 71.68-71.68l19.627-11.093v-171.52z" />
<glyph unicode="&#xe926;" glyph-name="EP-Icons_Like-Filled" d="M42.667 594.773h171.947v-562.347h-171.947v562.347zM957.483 532.523c-27.733 29.013-66.987 43.52-106.667 39.68-37.12 0-65.28-4.267-93.013-4.267-47.787-7.253-96.853-5.973-144.213 4.267-5.12 2.133-9.813 5.12-14.080 8.96-14.080 22.187 4.693 75.093 18.773 119.467 11.947 37.547 19.627 75.947 23.040 115.2-0.427 18.773-11.093 35.84-27.733 44.373-18.773 8.96-69.547 26.453-357.973-296.533l-9.387-8.96v-513.28h427.52c171.947 0 250.88 190.293 278.613 274.347 37.547 110.507 37.547 177.067 5.12 216.747z" />
<glyph unicode="&#xe927;" glyph-name="EP-Icons_Like-Outline" d="M42.667 594.773h171.947v-562.347h-171.947v562.347zM850.773 572.587c-37.12 0-64.853-4.267-93.013-4.267-47.787-7.253-96.853-5.973-144.213 4.267-5.12 2.133-9.813 5.12-14.080 8.96-14.080 22.187 4.693 75.093 18.773 119.467 11.947 37.547 19.627 75.947 23.040 115.2-0.427 18.773-11.093 35.84-27.733 44.373-18.773 8.96-69.547 26.453-357.973-296.533l-9.387-8.96v-513.28h427.52c171.947 0 250.88 190.293 278.613 274.347 37.12 110.507 37.12 177.067 4.693 216.747-26.88 28.587-66.56 43.52-106.24 39.68zM883.2 333.653c-23.040-66.133-88.32-225.707-213.76-225.707h-357.973v420.267c78.080 87.893 162.133 170.667 250.88 247.893-4.693-17.493-9.387-35.413-14.080-57.6-18.773-61.867-37.12-128.427-9.387-172.373 13.227-19.627 32.853-33.707 55.893-39.68 56.32-13.653 114.347-16.64 171.947-8.96 27.733 3.84 55.893 5.547 83.627 4.267 37.12 0 46.507-8.96 51.2-13.227 9.387-8.96 18.773-48.64-18.347-154.88v0z" />
<glyph unicode="&#xe928;" glyph-name="EP-Icons_Location" d="M512 917.333c-181.333 0-328.533-147.2-328.533-328.533 0-246.187 328.533-610.133 328.533-610.133s328.533 363.947 328.533 610.133c0 181.333-147.2 328.533-328.533 328.533zM512 471.467c-64.853 0-117.333 52.48-117.333 117.333s52.48 117.333 117.333 117.333c64.853 0 117.333-52.48 117.333-117.333v0c0-64.853-52.48-117.333-117.333-117.333z" />
<glyph unicode="&#xe929;" glyph-name="EP-Icons_Login-Right" d="M299.52 917.333l-49.493-49.493 415.147-419.84-415.147-419.84 49.493-49.493 474.453 469.333-474.453 469.333z" />
<glyph unicode="&#xe92a;" glyph-name="EP-Icons_Logo" d="M511.701 660.48c15.787 0 31.573 3.84 46.080 11.093l191.573-318.293c4.267-6.827 13.227-8.96 20.053-5.12 6.827 4.267 8.96 13.227 5.12 20.053v0l-192.427 320c40.533 38.827 42.24 102.827 3.413 143.36-38.4 40.533-102.827 42.24-143.36 3.413s-42.24-102.827-3.413-143.36c18.773-19.627 45.227-31.147 72.96-31.147zM511.701 834.56c40.107 0 72.533-32.427 72.533-72.533s-32.427-72.533-72.533-72.533c-40.107 0-72.533 32.427-72.533 72.533s32.427 72.533 72.533 72.533c0 0 0 0 0 0zM143.915 32.853c55.893 0 101.547 45.227 101.547 101.547 0 38.827-21.76 73.813-56.747 90.88 1.28 0.853 2.133 2.133 2.987 3.413l192.853 321.28c4.267 6.827 1.707 15.787-5.12 20.053s-15.787 2.133-20.053-5.12v0l-192.853-321.28c-1.707-2.987-2.56-6.827-1.707-10.24-55.040 11.947-108.8-23.040-120.747-78.080s23.040-108.8 78.080-120.747c7.68-1.28 14.933-1.707 21.76-1.707zM143.915 206.507c40.107 0 72.533-32.427 72.533-72.533s-32.427-72.533-72.533-72.533-72.533 32.427-72.533 72.533c0 40.107 32.853 72.533 72.533 72.533v0zM372.181 148.907c-8.107 0-14.507-6.4-14.507-14.507s6.4-14.507 14.507-14.507h404.907c0.853 0 1.28 0.427 2.133 0.427 7.68-55.467 59.307-94.293 114.773-86.613s94.293 59.307 86.613 114.773-59.307 94.293-114.773 86.613c-44.8-6.4-80.213-41.387-86.613-86.613-0.853 0-1.28 0.427-2.133 0.427h-404.907zM879.488 206.507c40.107 0 72.533-32.427 72.533-72.533s-32.427-72.533-72.533-72.533-72.533 32.427-72.533 72.533c0 0 0 0 0 0 0.427 40.107 32.853 72.533 72.533 72.533v0 0z" />
<glyph unicode="&#xe92b;" glyph-name="EP-Icons_Mobile" d="M781.653 819.2c0 54.187-43.947 98.133-98.133 98.133h-343.040c-54.187 0-98.133-43.947-98.133-98.133v-742.4c0-54.187 43.947-98.133 98.133-98.133h343.040c54.187 0 98.133 43.947 98.133 98.133v742.4zM287.573 747.52h448.427v-548.693h-448.427v548.693zM683.947 23.893h-343.893c-29.013 0.427-52.48 23.893-52.48 53.333v76.8h448.427v-76.8c0-29.44-23.040-52.907-52.053-53.333v0zM736.427 818.773v-26.027h-448.853v26.027c0 29.013 23.467 52.907 52.48 53.333h343.467c29.44-0.427 52.907-23.893 52.907-53.333v0zM558.080 110.507h-92.16c-12.373 0-22.613-10.24-22.613-22.613s10.24-22.613 22.613-22.613c0 0 0 0 0 0h92.16c12.373 0 22.613 10.24 22.613 22.613s-9.813 22.613-22.613 22.613c0 0 0 0 0 0z" />
<glyph unicode="&#xe92c;" glyph-name="EP-Icons_Password" d="M781.653 584.107h-44.8v112.213c-2.133 123.733-104.533 222.72-228.267 221.013-121.6-1.707-219.307-99.84-221.44-221.013v-112.213h-44.8c-53.333 0-96.427-43.093-96.427-96.427v-412.587c0-53.333 43.093-96.427 96.427-96.427h538.88c53.333 0 96.427 43.093 96.427 96.427v412.587c0.427 52.907-43.093 96.427-96 96.427zM359.68 696.32c0 84.053 68.267 152.32 152.32 152.32s152.32-68.267 152.32-152.32v-112.213h-304.64v112.213zM805.547 75.093c0-13.227-10.667-24.32-24.32-24.32v0h-538.88c-13.227 0-24.32 10.667-24.32 24.32v0 412.587c0 13.227 10.667 24.32 24.32 24.32v0h538.88c13.227 0 24.32-10.667 24.32-24.32v-412.587z" />
<glyph unicode="&#xe92d;" glyph-name="EP-Icons_Positions" d="M42.667 813.227v-730.027c0-58.027 46.507-104.533 104.107-104.533v0h730.027c57.6 0 104.533 46.933 104.533 104.107v730.453c0 57.173-46.933 104.107-104.107 104.107h-730.453c-57.6 0-104.107-46.507-104.107-104.107v0zM668.587 604.587c0-86.613-69.973-156.587-156.587-156.587s-156.587 69.973-156.587 156.587 69.973 156.16 156.587 156.16c0 0 0 0 0 0 86.187 0 156.16-69.547 156.587-155.733 0-0.427 0-0.427 0-0.427zM199.253 187.307c0 104.107 208.64 161.707 312.747 161.707s312.747-57.173 312.747-161.707v-52.053h-625.493v52.053z" />
<glyph unicode="&#xe92e;" glyph-name="EP-Icons_Profile-copy" d="M514.987 669.013h-5.973c-122.453 0-222.293-98.133-224.427-220.587v-0.853c2.133-122.88 102.4-220.587 224.427-220.587h5.973c122.453 0 222.293 98.133 224.853 220.587v0.853c-2.56 122.88-102.4 220.587-224.853 220.587zM514.987 278.187h-5.973c-94.293 0-171.52 75.52-173.227 169.813 1.707 94.293 78.933 169.813 173.227 169.813h5.973c94.293 0 171.52-75.52 173.227-169.813-1.707-94.72-78.933-169.813-173.227-169.813zM171.52 793.173v0 0zM989.867 336.213v0l-91.733 74.24c1.28 12.373 2.987 25.173 2.987 37.973s-1.707 25.173-2.987 37.973l91.733 74.24c11.093 8.533 17.067 21.76 17.067 34.987 0 7.68-2.133 15.787-6.4 23.040l-93.013 156.16c-8.533 14.080-23.467 22.187-39.253 22.187-5.12 0-10.667-0.853-15.787-2.56l-112.64-40.107c-21.76 14.933-44.373 28.16-68.693 38.4l-20.48 113.92c-4.267 21.76-23.040 37.12-44.8 37.12h-187.307c-21.76 0-40.533-15.36-44.8-36.693v0l-20.48-115.2c-24.32-10.667-47.36-23.467-68.693-38.827l-113.067 40.107c-5.12 1.707-10.24 2.56-15.787 2.56-15.787 0-30.72-8.107-39.253-22.187v0l-93.013-155.733c-4.267-7.253-6.4-14.933-6.4-22.613 0-13.227 5.973-26.027 17.067-34.987v0l91.733-74.24c-1.707-12.8-2.987-25.173-2.987-37.973s1.707-25.173 2.987-37.973l-91.733-74.24c-11.093-8.533-17.067-21.76-17.067-34.987 0-7.68 2.133-15.787 6.4-22.613v0l93.013-156.16c8.533-14.080 23.893-21.76 39.253-21.76 5.12 0 10.24 0.853 15.36 2.56l113.067 40.107c21.76-14.933 44.8-27.733 68.693-38.4l20.48-113.92c3.84-21.76 22.613-37.547 44.8-37.547v0 0 0h186.027c21.76 0 40.533 15.36 44.8 37.12v0l20.48 113.92c24.32 10.667 47.36 23.467 69.12 38.827l113.067-40.107c5.12-1.707 10.24-2.56 15.36-2.56 15.787 0 30.72 8.107 39.253 21.76v0l93.013 156.16c4.267 7.253 6.4 14.933 6.4 23.040 1.28 13.227-4.693 26.027-15.787 34.987zM865.707 152.32l-133.973 47.36-11.093-8.533c-25.173-19.2-52.907-34.56-82.347-46.080l-13.227-5.12-24.747-136.107h-176.64l-24.747 136.96-13.227 5.12c-29.44 11.52-57.173 26.88-82.347 45.653l-11.093 8.107-134.4-47.36-87.893 147.2 109.653 88.747-2.133 14.507c-2.56 14.933-3.84 30.293-3.84 45.227 0 15.36 1.28 30.293 3.413 45.227l2.133 14.507-108.8 88.747 87.893 147.2 133.973-47.36 11.093 8.533c25.173 18.773 52.907 34.133 82.347 45.653l13.227 5.12 24.32 136.107h177.493l24.747-136.107 13.227-5.12c29.44-11.52 56.747-26.88 81.92-46.080l11.093-8.533 133.973 47.36 87.893-147.2-109.653-88.747 2.133-14.507c2.56-14.933 3.413-30.293 3.413-45.227s-1.28-30.293-3.413-45.227l-2.133-14.507 109.227-88.32-87.467-147.2z" />
<glyph unicode="&#xe92f;" glyph-name="EP-Icons_Profile" d="M512 823.467c77.653 0 140.8-63.147 140.8-140.8s-63.147-140.8-140.8-140.8-140.8 63.147-140.8 140.8 63.147 140.8 140.8 140.8v0zM512 236.8c174.080 0 375.467-85.333 375.467-140.8v-23.467h-750.933v23.467c0 55.467 201.387 140.8 375.467 140.8zM512 917.333c-129.707 0-234.667-104.96-234.667-234.667s104.96-234.667 234.667-234.667 234.667 104.96 234.667 234.667-104.96 234.667-234.667 234.667zM512 330.667c-156.587 0-469.333-78.507-469.333-234.667v-117.333h938.667v117.333c0 156.16-312.747 234.667-469.333 234.667z" />
<glyph unicode="&#xe930;" glyph-name="EP-Icons_Real-Estate" d="M374.187 399.36h46.080v-125.867h-46.080v125.867zM297.387 347.733h46.080v-74.24h-46.080v74.24zM450.56 469.333h46.080v-195.413h-46.080v195.413zM527.36 594.773h46.080v-321.28h-46.080v321.28zM603.733 530.347h46.080v-256.427h-46.080v256.427zM680.533 426.667h46.080v-153.6h-46.080v153.6zM297.387 179.2h429.227v-58.88h-429.227v58.88zM142.933 536.747v-558.080h738.56v558.080l-369.493 263.68-369.067-263.68zM822.613 37.547h-621.227v469.333l310.613 221.44 310.613-221.867v-468.907zM951.467 531.2v71.68l-151.467 108.373v115.627l-90.027 90.453v-141.653l-197.973 141.653-439.467-314.453v-71.68l439.467 314.453 439.467-314.453z" />
<glyph unicode="&#xe931;" glyph-name="EP-Icons_Right" d="M222.72 807.68l359.68-359.68-359.68-359.68 109.227-109.653 469.333 469.333-469.333 469.333-109.227-109.653z" />
<glyph unicode="&#xe932;" glyph-name="EP-Icons_Save-Filled" d="M139.52 917.333v-938.667l372.48 335.36 372.48-335.36v938.667h-744.96z" />
<glyph unicode="&#xe933;" glyph-name="EP-Icons_Save-Outline" d="M139.52 917.333v-938.667l372.48 335.36 372.48-335.36v938.667h-744.96zM827.307 106.24l-315.307 283.733-38.827-34.987-276.48-248.747v755.2h630.187l0.427-755.2z" />
<glyph unicode="&#xe934;" glyph-name="EP-Icons_Search" d="M726.613 293.547l242.347-241.92c16.64-16.64 16.64-43.947 0-60.587s-43.947-16.64-60.587 0l-241.92 242.347c-165.547-132.267-407.467-105.387-539.733 60.16s-105.387 407.467 60.16 539.733 407.467 105.387 539.733-60.16c112.213-140.373 112.213-339.2 0-479.573zM426.667 234.667c165.12 0 298.667 133.973 298.667 298.667s-133.973 298.667-298.667 298.667c-165.12 0-298.667-133.547-298.667-298.667s133.547-298.667 298.667-298.667c0 0 0 0 0 0z" />
<glyph unicode="&#xe935;" glyph-name="EP-Icons_Send" d="M974.507 910.507c-6.827 6.827-17.493 8.533-26.027 4.693l-892.587-421.12c-11.52-5.547-16.213-19.2-11.093-30.72 2.56-5.547 7.253-9.387 12.8-11.52l333.227-124.16 124.16-333.653c3.413-8.96 11.52-14.507 20.907-14.933h0.853c8.96 0 17.493 5.12 21.333 13.227l420.693 892.16c4.267 8.533 2.56 19.2-4.267 26.027zM847.36 816.213l-444.16-444.16-277.76 103.253 721.92 340.907zM539.733 61.44l-103.253 277.76 443.733 444.16-340.48-721.92z" />
<glyph unicode="&#xe936;" glyph-name="EP-Icons_Share" d="M794.88 253.867c-34.133 0-66.987-13.227-92.16-36.267l-335.787 195.84c2.56 10.667 4.267 21.76 4.267 32.853-0.427 11.093-1.707 22.187-4.267 32.853l332.373 193.707c57.173-52.907 146.347-49.493 199.253 7.253 52.907 57.173 49.493 146.347-7.253 199.253-57.173 52.907-146.347 49.493-199.253-7.253-24.32-26.027-37.547-60.587-37.547-96 0.427-11.093 1.707-22.187 4.267-32.853l-332.8-194.133c-56.747 53.76-146.347 50.773-199.68-6.4s-50.347-146.347 6.4-200.107c54.187-50.773 139.093-50.773 193.28 0l335.36-195.84c-2.56-10.24-3.84-20.48-3.84-30.72 0-75.947 61.44-137.387 137.387-137.387s137.387 61.44 137.387 137.387c0.853 76.373-61.013 137.813-137.387 137.813v0 0z" />
<glyph unicode="&#xe937;" glyph-name="EP-Icons_Sort-by" d="M967.68 653.653c-14.933-16.213-40.107-17.493-56.32-2.56-0.853 0.853-1.707 1.707-2.56 2.56l-107.52 112.213v-745.813c0-23.040-18.347-41.387-41.387-41.813 0 0-0.427 0-0.427 0-23.040 0-41.387 18.347-41.813 41.387 0 0 0 0.427 0 0.427v745.813l-107.52-112.213c-14.933-16.213-40.107-17.493-56.32-2.56-0.853 0.853-1.707 1.707-2.56 2.56-16.213 17.493-16.213 44.8 0 62.72l175.787 185.173 2.56 2.133c7.253 8.107 17.92 12.8 29.013 12.373 11.093 0 22.187-4.267 29.867-12.373v0l177.92-187.307c17.067-17.493 17.493-44.8 1.28-62.72zM296.96-3.84v0l-3.413-3.413c-7.253-8.107-17.92-12.8-29.013-12.373-11.093 0-22.187 4.267-29.867 12.373v0l-177.92 187.307c-16.213 17.493-16.213 44.8 0 62.72 14.933 16.213 40.107 17.493 56.32 2.56 0.853-0.853 1.707-1.707 2.56-2.56l107.093-112.213v744.96c0 23.040 18.347 41.813 41.387 41.813 0 0 0.427 0 0.427 0 23.040 0 41.387-18.347 41.813-41.387 0 0 0-0.427 0-0.427v-745.813l107.52 112.213c14.933 16.213 40.107 17.493 56.32 2.56 0.853-0.853 1.707-1.707 2.56-2.56 16.213-17.493 16.213-44.8 0-62.72l-175.787-183.040z" />
<glyph unicode="&#xe938;" glyph-name="EP-Icons_Tag" d="M933.12 416.427c24.32 24.32 37.973 57.173 38.827 91.307l9.387 371.2c-0.427 10.24-4.267 20.053-11.52 27.307s-17.067 10.667-27.307 10.667l-371.2-8.533c-34.133-0.853-66.987-14.933-91.307-38.827l-390.827-390.827c-29.867-29.867-46.507-70.4-46.080-112.64 0-39.253 15.36-76.373 43.093-104.107l239.787-239.787c61.013-58.453 157.867-56.747 216.32 3.84 0 0 0 0 0 0l390.827 390.4zM378.027 73.813l-239.787 239.787c-29.867 32.427-28.16 82.347 4.267 112.64l389.973 389.973c11.093 10.667 25.6 17.493 40.96 18.773l332.373 7.253-6.4-333.227c-0.853-15.787-7.68-30.293-18.773-40.96l-389.973-390.827c-29.44-32-79.36-33.707-111.36-3.84-0.853-0.427-0.853 0-1.28 0.427zM785.067 568.747v0c41.387 42.24 40.533 110.080-2.133 151.467-41.387 40.533-107.52 40.533-148.907 0.427-41.387-42.24-41.387-109.653 0-151.893 20.053-20.053 47.787-31.573 76.373-31.147 28.16 0.427 55.040 11.52 74.667 31.147v0zM679.253 614.4c-16.64 17.067-16.213 44.8 0.853 61.44 16.64 16.213 43.52 16.213 60.587 0 8.107-8.107 12.8-18.773 12.8-30.293s-4.693-22.187-12.8-30.293v0c-16.64-16.64-43.947-17.067-61.44-0.853z" />
<glyph unicode="&#xe939;" glyph-name="EP-Icons_Tik" d="M981.333 734.72l-49.493 49.493-567.893-563.627-271.787 266.667-49.493-49.067 321.28-325.973 617.387 622.507z" />
<glyph unicode="&#xe93a;" glyph-name="EP-Icons_Up" d="M871.68 158.72l-359.68 359.68-359.68-359.68-109.653 109.227 469.333 469.333 469.333-469.333-109.653-109.227z" />
<glyph unicode="&#xe93b;" glyph-name="EP-Icons_Upload" d="M303.36 708.693h156.587v-521.387h104.107v521.387h156.587l-208.64 208.64-208.64-208.64zM94.72 82.773v-104.107h834.56v104.107h-834.56z" />
<glyph unicode="&#xe93c;" glyph-name="EP-Icons_User-ID" d="M630.656 427.435c123.307 79.787 159.147 244.48 79.36 367.787s-244.48 159.147-367.787 79.36-159.147-244.48-79.36-367.787c24.32-37.547 57.6-68.267 96.853-89.6-173.653-61.867-290.987-224.853-295.253-409.173-0.427-15.787 11.947-28.587 27.733-29.013s28.587 11.947 29.013 27.733c4.267 200.533 160.853 364.8 360.96 378.88h4.267c8.533-0.427 17.493 0 26.027 1.28 211.627 0.853 385.28-168.107 389.973-380.16 0.427-15.36 13.227-27.733 28.587-27.733h0.853c15.787 0.427 28.16 13.227 27.733 29.013 0 0 0 0 0 0-4.693 197.12-138.24 368.213-328.96 419.413zM276.949 651.861c0 115.627 93.867 209.493 209.493 209.493s209.493-93.867 209.493-209.493c0-107.093-80.64-197.12-187.307-208.213-8.96 0-17.92 0-26.88-0.853-113.493 1.707-204.8 94.72-204.8 209.067z" />
<glyph unicode="&#xe93d;" glyph-name="EP-Icons_vertical-Three-Dots" d="M512 682.667c64.853 0 117.333 52.48 117.333 117.333s-52.48 117.333-117.333 117.333-117.333-52.48-117.333-117.333c0-64.853 52.48-117.333 117.333-117.333zM512 565.333c-64.853 0-117.333-52.48-117.333-117.333s52.48-117.333 117.333-117.333 117.333 52.48 117.333 117.333c0 64.853-52.48 117.333-117.333 117.333zM512 213.333c-64.853 0-117.333-52.48-117.333-117.333s52.48-117.333 117.333-117.333 117.333 52.48 117.333 117.333c0 64.853-52.48 117.333-117.333 117.333z" />
<glyph unicode="&#xe93e;" glyph-name="EP-Icons_Voice-Search" d="M514.56 324.267c81.493 0 147.627 66.133 147.627 147.627v294.827c1.707 81.493-63.147 148.907-144.64 150.613s-148.907-63.147-150.613-144.64c0-2.133 0-3.84 0-5.973v-294.827c0-81.493 66.133-147.2 147.627-147.627zM773.973 471.893c-3.413-142.933-121.6-256.427-264.533-254.293-142.080-4.267-260.693 107.947-264.533 250.027 0 1.28 0 2.987 0 4.267h-75.947c2.987-168.107 128.427-308.48 294.827-330.667v-162.56h96.853v162.56c165.973 23.467 290.56 162.987 294.827 330.667h-81.493z" />
<glyph unicode="&#xe93f;" glyph-name="EP_Icons_Star_Filled" d="M512 894.293l110.933-341.333h358.4l-290.133-210.773 110.933-341.333-290.133 211.627-290.133-210.773 110.933 341.333-290.133 210.347h358.4z" />
<glyph unicode="&#xe940;" glyph-name="EP_Icons_Star_Half_Filled" d="M802.133 1.707l-290.133 210.773-290.133-210.773 110.933 341.333-290.133 210.347h358.4l110.933 341.333 110.933-341.333h358.4l-290.133-210.773zM512 257.707l218.453-159.147-85.333 256 218.453 158.72h-266.24l-85.333 256-85.333-256h-268.373l218.453-158.72-83.2-256zM512 880.213v-649.813l-248.747-185.6 89.173 305.067-255.573 183.467h319.147z" />
<glyph unicode="&#xe941;" glyph-name="EP_Icons_Star_Unfillled" d="M802.133 1.707l-290.133 210.773-290.133-210.773 110.933 341.333-290.133 210.347h358.4l110.933 341.333 110.933-341.333h358.4l-290.133-210.773zM512 257.707l218.453-159.147-85.333 256 218.453 158.72h-266.24l-85.333 256-85.333-256h-268.373l218.453-158.72-83.2-256z" />
</font>
</defs>
</svg>
